<?xml version="1.0" standalone="no"?>
<!DOCTYPE svg PUBLIC "-//W3C//DTD SVG 20010904//EN"
 "http://www.w3.org/TR/2001/REC-SVG-20010904/DTD/svg10.dtd">
<svg version="1.0" xmlns="http://www.w3.org/2000/svg"
 width="370.000000pt" height="283.000000pt" viewBox="0 0 370.000000 283.000000"
 preserveAspectRatio="xMidYMid meet">

<g transform="translate(0.000000,283.000000) scale(0.100000,-0.100000)"
fill="#000000" stroke="none">
<path d="M0 1415 l0 -1415 1850 0 1850 0 0 1415 0 1415 -1850 0 -1850 0 0
-1415z m1236 1315 c140 -25 227 -67 311 -150 117 -116 222 -309 327 -600 259
-723 337 -930 469 -1240 50 -118 126 -285 169 -369 43 -85 75 -158 71 -161
-14 -12 -117 -49 -183 -67 -78 -20 -239 -22 -325 -4 -92 20 -179 66 -252 134
-166 155 -274 387 -608 1297 -189 514 -239 638 -361 886 -52 106 -94 194 -94
197 0 10 118 60 185 78 91 23 157 23 291 -1z m1129 -4 c242 -50 404 -226 554
-603 21 -54 78 -208 126 -343 248 -697 432 -1153 581 -1439 36 -68 61 -127 57
-131 -14 -12 -116 -49 -183 -67 -79 -20 -240 -22 -325 -4 -222 49 -364 202
-528 571 -80 181 -158 382 -321 828 -201 552 -297 783 -412 999 -30 56 -54
107 -54 113 0 15 98 57 185 81 82 22 194 21 320 -5z m-1440 -1661 c154 -40
271 -149 327 -303 30 -82 29 -232 -1 -322 -43 -127 -124 -215 -239 -262 -56
-23 -65 -23 -510 -26 -252 -2 -452 1 -452 6 0 5 48 100 106 213 125 241 304
519 379 587 113 103 254 142 390 107z"/>
</g>
</svg>
